<?xml version="1.0" encoding="utf-8"?>
<!-- Generator: Adobe Illustrator 22.1.0, SVG Export Plug-In . SVG Version: 6.00 Build 0)  -->
<svg version="1.1" id="Layer_1" xmlns="http://www.w3.org/2000/svg" xmlns:xlink="http://www.w3.org/1999/xlink" x="0px" y="0px"
	 viewBox="0 0 843 215" style="enable-background:new 0 0 843 215;" xml:space="preserve">
<style type="text/css">
	.st0{fill:#1379FF;}
</style>
<g transform="translate(0.000000,215.000000) scale(0.100000,-0.100000)">
	<path class="st0" d="M1311,2089c-212-25-417-121-575-269c-428-403-428-1077,0-1480C993,98,1359,7,1702,101c98,27,258,106,338,167
		c67,51,127,109,119,115c-2,2-41,25-86,50l-83,47l-62-46c-80-58-173-106-268-136c-65-20-96-23-225-23s-160,3-225,23
		c-278,88-474,284-562,562c-20,65-23,96-23,225s3,160,23,225c88,278,284,474,562,562c65,20,96,23,225,23s160-3,225-23
		c98-31,193-80,273-140l65-50l67,68l67,67l-44,37c-149,128-347,212-553,236C1434,2101,1416,2101,1311,2089z"/>
	<path class="st0" d="M1886,1448l-436-443l-183,183l-183,183l-49-56l-48-56l44-46c24-24,129-126,232-226l188-181l490,490
		c269,269,489,491,489,494c0,9-92,100-101,100C2325,1890,2126,1691,1886,1448z"/>
	<path class="st0" d="M4745,1280c-211-38-388-201-451-416c-24-83-22-228,5-314c39-123,110-219,216-295c94-67,180-97,300-103
		c162-7,294,37,408,138c54,49,117,128,117,148c0,5-43,26-95,46l-96,38l-54-56c-78-82-146-111-255-111c-68,1-94,5-133,24
		c-75,37-140,102-178,178c-31,62-34,76-34,158c0,80,3,97,32,157c40,84,97,142,181,181c136,64,281,31,389-87l49-53l91,36
		c51,20,94,39,98,43c11,11-23,64-74,117c-65,67-160,127-239,151C4947,1283,4816,1293,4745,1280z"/>
	<path class="st0" d="M90,720V170h110h110v550v550H200H90V720z"/>
	<path class="st0" d="M2310,720V170h110h110v215v215h270h270V385V170h105h105v550v550h-105h-105v-235V800h-270h-270v235v235h-110
		h-110V720z"/>
	<path class="st0" d="M3430,720V170h405h405v95v95l-297,2l-298,3l-3,123l-3,122h266h265v100v100h-265h-265v135v135h300h300v95v95
		h-405h-405V720z"/>
	<path class="st0" d="M5410,720V170h110h110l2,242l3,243l224-243l224-242h139c76,0,138,2,138,5s-108,121-240,262
		c-133,141-238,263-236,269c3,7,102,134,221,282c118,148,215,272,215,276c0,3-58,6-129,6h-130l-213-272l-213-272l-3,272l-2,272h-110
		h-110V720z"/>
	<path class="st0" d="M6990,720V170h105h105v550v550h-105h-105V720z"/>
	<path class="st0" d="M7380,720V170h105h105v321c0,177,4,319,9,317c4-2,166-146,359-320c193-175,358-318,366-318c14,0,16,59,16,550
		v550h-110h-110l-2-325l-3-325l-354,325c-195,179-361,325-368,325C7382,1270,7380,1168,7380,720z"/>
	<path class="st0" d="M6370,735v-95h245h245v95v95h-245h-245V735z"/>
</g>
</svg>
